<?xml version="1.0" encoding="ISO-8859-1" standalone="yes"?>
<!DOCTYPE svg PUBLIC "-//W3C//DTD SVG 20010904//EN"
  "http://www.w3.org/TR/2001/REC-SVG-20010904/DTD/svg10.dtd">
<svg width="9.9995cm" height="7.9997cm" viewBox="141.7188 1700.7188 1417.2578 1133.8125" version="1.0"
    xmlns="http://www.w3.org/2000/svg"
    xmlns:xlink="http://www.w3.org/1999/xlink">
<desc>
  Exported by the ArtWorks SVGExport module.
  Source document: LanMan98::PC_Documents.$.Computing.Elan.Work.documentationBVB.Images.EscherFish/aw
</desc>
<g transform="matrix(1 0 0 -1 0 4535.25)" stroke-miterlimit="16" fill-rule="evenodd" clip-rule="evenodd" stroke-linejoin="bevel" stroke-linecap="butt">
<g>
<g>
<path d="M426.8672 2831.0781 C477.8125 2797.4453 511.8359 2781.8672 578.1328 2727.2422 608.5859 2703.375 634.3438 2673.6563 659.0313 2644.1094 695.1641 2600.8828 723.1953 2555.1563 756.6016 2506.3438 778.0313 2463.9297 754.3047 2325.4219 772.4219 2266.6016 807.6016 2152.4297 906.5313 2066.2266 991.1797 1986.8359 1081.2734 1946.4609 1182.3203 1939.0703 1293.3203 1931.7813 1314.7422 1905.3203 1334.7891 1873.8828 1389.2734 1823.2891 1441.8906 1774.3984 1560.6094 1702.1328 1555.6875 1702.6484 1497.6328 1708.6875 1363.1797 1750.0625 1259.9219 1749.4688 1196.5078 1752.0156 1124.1094 1740.1328 1061.2031 1737.7656 996.2734 1795.7969 882.7344 1891.4844 784.6563 1944.9453 704.4063 1988.6641 614.8438 2021.4453 544.4766 2077.0938 463.625 2141.0156 427.8672 2252.5156 391.8281 2336.6875 378.2422 2418.125 374.1563 2516.5156 384.0078 2600.3438 385.3672 2650.2188 426.7813 2827.25 426.8672 2831.0781 Z" stroke="#000000" stroke-width="2.5" fill="none"/>
<path d="M390.2969 2335.8359 C277.3984 2202.1797 201.4141 2109.5391 142.8203 1987.6875 209.8281 1917.6641 362.6172 1767.0234 426.5234 1705.2734 476.9609 1747.4609 610.5625 1893.6563 707.1406 1982.9297" stroke="#000000" stroke-width="2.5" fill="none"/>
<path d="M705.1094 1984.9688" stroke="#000000" stroke-width="2.5" fill="none"/>
<path d="M532.6563 2494.375 C529.5703 2539.8984 516.2969 2617.7656 481.625 2626.9297 478.3125 2594.8672 467.8594 2479.8438 481.8828 2447.0078 506.875 2467.3672 518.8594 2478.0547 532.6563 2494.375 Z" stroke="#000000" stroke-width="2.5" fill="none"/>
<path d="M637.8125 2555.0469 C616.25 2583.4063 565.2578 2636.6016 548.0469 2654.7969 545.3672 2623.8828 556.5859 2547.7891 566.2734 2515.9766 600.9531 2532.7734 624.6641 2536.0781 637.8125 2555.0469 Z" stroke="#000000" stroke-width="2.5" fill="none"/>
<path d="M228.7031 1973.1406 C256.9219 2019.9688 276.5703 2073.1328 313.3516 2113.6172 344.3672 2147.7344 387.4609 2168.5781 424.5078 2196.0625" stroke="#000000" stroke-width="2.5" fill="none"/>
<path d="M285.3047 1916.1328 C315.5625 1961.0078 339.7344 2010.6406 376.0703 2050.7578 407.5625 2085.5156 448.3047 2110.6406 484.4375 2140.5859" stroke="#000000" stroke-width="2.5" fill="none"/>
<path d="M355.9219 1847.4219 C376.9297 1888.0547 390.2969 1933.6094 418.9063 1969.3125 451.5469 2010.0469 498.9688 2036.3359 538.9922 2069.8438" stroke="#000000" stroke-width="2.5" fill="none"/>
<path d="M399.0156 1775.1328 C422.9063 1812.8125 443.7031 1852.6016 470.6641 1888.1406 490.1016 1913.75 512.4063 1937.1641 535.1719 1959.8984 556.4375 1981.1563 579.8672 2000.1172 602.2266 2020.2188" stroke="#000000" stroke-width="2.5" fill="none"/>
<path d="M900.7969 2139.8281 C907.6875 2126.1641 910.5625 2109.6016 921.4531 2098.8516 936.3203 2084.1875 959.0156 2080.5313 977.8047 2071.3672" stroke="#000000" stroke-width="2.5" fill="none"/>
<path d="M934.4531 2175.1953 C939.5547 2167.3047 943.1406 2158.2031 949.75 2151.5391 957.4844 2143.7422 968.1172 2139.4922 977.2891 2133.4609" stroke="#000000" stroke-width="2.5" fill="none"/>
<path d="M852.1016 2128.625 C907.5469 2179.9141 946.3125 2221.6484 990.7969 2265.5469 991.1797 2383.5156 991.3516 2459.3516 991.8203 2549.0625 965.5156 2562.4922 945.3125 2567.2969 913.8438 2574.0391 849.0391 2587.9453 765.2578 2594.7188 692.7422 2601.9922" stroke="#000000" stroke-width="2.5" fill="none"/>
<path d="M765.5391 2500.3203 C798.1797 2506.4297 830.3203 2520.9766 863.4453 2518.6484 903.1719 2515.8594 938.9141 2493.1953 976.6484 2480.4688" stroke="#000000" stroke-width="2.5" fill="none"/>
<path d="M806.8438 2388.3438 C833.8672 2399.5391 858.8828 2418.2891 887.9219 2421.9453 917.5547 2425.6563 947.0703 2413.4609 976.6484 2409.2109" stroke="#000000" stroke-width="2.5" fill="none"/>
<path d="M813.4688 2266.6797 C838.7969 2287.3828 859.1953 2316.3125 889.4531 2328.7969 916.7578 2340.0547 948.2656 2334.5625 977.6797 2337.4531" stroke="#000000" stroke-width="2.5" fill="none"/>
<path d="M553.4063 2491.6719 C591.3125 2401.9141 625.5625 2305.2969 667.1172 2222.4063 716.9531 2123.0234 799.5234 2034.1484 897.1016 1980.6406 1044.2188 1899.9688 1196.2578 1851.7031 1345.8516 1787.2266" stroke="#000000" stroke-width="2.5" fill="none"/>
</g>
<path d="M1556.3672 2833.2813 426.3359 2833.2813 427.0156 1704 1557.7266 1701.9688 1556.3672 2833.2813 Z" stroke="#b3b3b3" stroke-width="2.5" stroke-dasharray="12" fill="none"/>
</g>
</g>
</svg>
